<svg width="32" height="37" viewBox="0 0 32 37" fill="none" xmlns="http://www.w3.org/2000/svg">
<path d="M6.8314 0C5.57897 0 4.55426 1.02431 4.55426 2.27625V34.1437C4.55426 35.3957 5.57897 36.42 6.8314 36.42H29.6028C30.8553 36.42 31.88 35.3957 31.88 34.1437V9.105L22.7714 0H6.8314Z" fill="#E9EAEE"/>
<path d="M25.0486 9.105H31.88L22.7714 0V6.82875C22.7714 8.08069 23.7961 9.105 25.0486 9.105Z" fill="#A7ADBB"/>
<path fill-rule="evenodd" clip-rule="evenodd" d="M22.7162 22.5326C22.7162 23.8225 21.6707 24.868 20.3813 24.868H3.3349C2.04496 24.868 1 23.8225 1 22.5326V15.3985C1 14.1086 2.04496 13.0636 3.3349 13.0636H20.3813C21.6707 13.0636 22.7162 14.1086 22.7162 15.3985V22.5326V22.5326Z" fill="#50BEE8"/>
<path d="M5.4219 21.2612C5.22012 21.2612 5 21.1407 5 20.8493V17.0781C5 16.8389 5.22012 16.6661 5.4219 16.6661H6.82138C9.6142 16.6661 9.55229 21.2612 6.87564 21.2612H5.4219V21.2612ZM5.80712 17.4759V20.4506H6.82138C8.47154 20.4506 8.54415 17.4759 6.82138 17.4759H5.80712Z" fill="white"/>
<path d="M11.8911 21.3276C10.7607 21.3807 9.58667 20.5635 9.58667 18.9366C9.58667 17.3031 10.7599 16.5 11.8911 16.5C12.9604 16.559 14.0786 17.3629 14.0786 18.9366C14.0786 20.5112 12.9604 21.3276 11.8911 21.3276ZM11.8238 17.3637C11.139 17.3637 10.3938 17.8886 10.3938 18.9375C10.3938 19.9805 11.1398 20.512 11.8238 20.512C12.527 20.512 13.2783 19.9805 13.2783 18.9375C13.2783 17.8877 12.527 17.3637 11.8238 17.3637Z" fill="white"/>
<path d="M14.7979 18.93C14.7979 17.6486 15.5377 16.5465 16.9433 16.5465C17.4753 16.5465 17.8972 16.7192 18.3428 17.1378C18.5079 17.3031 18.5262 17.5954 18.3611 17.7814C18.196 17.94 17.9453 17.9209 17.7986 17.7615C17.5486 17.4758 17.2918 17.3969 16.9433 17.3969C16.0024 17.3969 15.5507 18.1211 15.5507 18.9308C15.5507 19.7546 15.9963 20.5112 16.9433 20.5112C17.2918 20.5112 17.6159 20.3576 17.8972 20.086C18.086 19.9266 18.3489 20.0054 18.459 20.1657C18.5568 20.3119 18.6049 20.5577 18.3917 20.7894C17.9637 21.2221 17.4508 21.3085 16.9425 21.3085C15.4643 21.3085 14.7979 20.2114 14.7979 18.93Z" fill="white"/>
</svg>
