<svg width="23" height="26" viewBox="0 0 23 26" fill="none" xmlns="http://www.w3.org/2000/svg">
<g clip-path="url(#clip0)">
<path fill-rule="evenodd" clip-rule="evenodd" d="M11.5455 24.6383L8.82702 21.9166L8.65788 21.7472L8.4292 21.6769C6.31266 21.0263 4.41074 19.6858 3.07378 17.9024C1.69215 16.0594 0.961853 13.8635 0.961853 11.552C0.961853 8.72359 2.06191 6.06445 4.05939 4.06442C6.05683 2.06441 8.71251 0.962967 11.5372 0.962967C14.3621 0.962967 17.0179 2.06442 19.0154 4.06443C21.0129 6.06444 22.1129 8.72357 22.1129 11.552C22.1129 13.8596 21.3849 16.0525 20.0076 17.8936C18.675 19.6751 16.7783 21.0163 14.6669 21.6703L14.4394 21.7407L14.271 21.9093L11.5455 24.6383Z" fill="#FF7E00"/>
<path fill-rule="evenodd" clip-rule="evenodd" d="M11.5455 23.2764L13.5908 21.2285L13.9276 20.8913L14.3826 20.7503C16.3016 20.156 18.0258 18.9364 19.2377 17.3164C20.4895 15.6431 21.1511 13.6498 21.1511 11.552C21.1511 6.24417 16.8383 1.92594 11.5372 1.92594C6.23631 1.92594 1.9237 6.24417 1.9237 11.552C1.9237 13.6534 2.58741 15.6494 3.84305 17.3244C5.05889 18.9462 6.78787 20.165 8.71152 20.7564L9.16887 20.8969L9.50716 21.2356L11.5455 23.2764L11.5455 26.0002L8.14687 22.5975C3.42971 21.1474 0 16.7507 0 11.552C0 5.17211 5.16549 0 11.5372 0C17.9093 0 23.0748 5.17211 23.0748 11.552C23.0748 16.7422 19.6565 21.1329 14.9511 22.5902L11.5455 26.0002L11.5455 23.2764Z" fill="white"/>
<path d="M10.3333 15.0833V12.1667H12.6667V15.0833C12.6667 15.4042 12.9292 15.6667 13.25 15.6667H15C15.3208 15.6667 15.5833 15.4042 15.5833 15.0833V11H16.575C16.8433 11 16.9717 10.6675 16.7675 10.4925L11.8908 6.1C11.6692 5.90166 11.3308 5.90166 11.1092 6.1L6.2325 10.4925C6.03416 10.6675 6.15666 11 6.425 11H7.41666V15.0833C7.41666 15.4042 7.67916 15.6667 8 15.6667H9.75C10.0708 15.6667 10.3333 15.4042 10.3333 15.0833Z" fill="white"/>
</g>
<defs>
<clipPath id="clip0">
<rect width="22.9567" height="26" fill="white"/>
</clipPath>
</defs>
</svg>
