<svg width="311" height="32" viewBox="0 0 311 32" fill="none" xmlns="http://www.w3.org/2000/svg">
<path fill-rule="evenodd" clip-rule="evenodd" d="M32.8911 1.60181H24.5577C24.484 1.60181 24.4102 1.67631 24.4102 1.75082V6.33289C24.4102 6.40739 24.484 6.4819 24.5577 6.4819H28.9088V19.7066L33.0755 17.3969V1.78807C33.0755 1.67631 33.0017 1.60181 32.8911 1.60181Z" fill="#FDC638"/>
<path fill-rule="evenodd" clip-rule="evenodd" d="M33.0386 17.397L28.9088 19.7066V25.9651H24.4102V30.8824H33.0386V17.397Z" fill="#F47E20"/>
<path fill-rule="evenodd" clip-rule="evenodd" d="M0.147494 1.60181H8.51776C8.59151 1.60181 8.66525 1.67631 8.66525 1.75082V6.33289C8.66525 6.40739 8.59151 6.4819 8.51776 6.4819H4.1667V15.3108L0 17.3969V1.75082C0 1.67631 0.0737469 1.60181 0.147494 1.60181Z" fill="#009588"/>
<path fill-rule="evenodd" clip-rule="evenodd" d="M0 17.3969L4.1667 15.3108V26.0023H8.51776C8.59151 26.0023 8.66525 26.0768 8.66525 26.1513V30.7706C8.66525 30.8451 8.59151 30.9196 8.51776 30.9196H0.147494C0.0737469 30.9196 0 30.8451 0 30.7706V17.3969Z" fill="#FDC638"/>
<path d="M16.4824 5.99767L11.4676 3.09197C11.3939 3.05471 11.3939 2.98021 11.4676 2.94296L16.4455 0C16.4824 0 16.5193 0 16.5561 0L21.5709 2.94296C21.6447 2.98021 21.6447 3.05471 21.5709 3.09197L16.593 5.99767C16.5561 6.03492 16.5193 6.03492 16.4824 5.99767Z" fill="#FDC638"/>
<path d="M16.1874 12.3307L11.1726 9.38773C11.1357 9.38773 11.1357 9.35048 11.1357 9.31323V3.53907C11.1357 3.46457 11.2095 3.42731 11.2832 3.46457L16.298 6.40752C16.3349 6.40752 16.3349 6.44477 16.3349 6.48203V12.2934C16.3349 12.3307 16.2611 12.3679 16.1874 12.3307Z" fill="#009588"/>
<path d="M21.9028 9.42488L16.888 12.3678C16.8142 12.4051 16.7405 12.3678 16.7405 12.2933V6.44467C16.7405 6.40742 16.7405 6.37017 16.7774 6.37017L21.7921 3.42721C21.8659 3.38996 21.9396 3.42721 21.9396 3.50172V9.31312C21.9396 9.38763 21.9028 9.38763 21.9028 9.42488Z" fill="#F47E20"/>
<path d="M16.4455 19.1852L11.4307 16.2422C11.357 16.205 11.357 16.1305 11.4307 16.0932L16.4086 13.1875C16.4455 13.1875 16.4824 13.1875 16.5193 13.1875L21.534 16.1305C21.6078 16.1677 21.6078 16.2422 21.534 16.2795L16.5561 19.1852C16.5193 19.1852 16.4824 19.1852 16.4455 19.1852Z" fill="#F47E20"/>
<path d="M16.1874 25.5181L11.1726 22.5751C11.1357 22.5751 11.1357 22.5379 11.1357 22.5006V16.6892C11.1357 16.6147 11.2095 16.5775 11.2832 16.6147L16.298 19.5577C16.3349 19.5577 16.3349 19.5949 16.3349 19.6322V25.4436C16.3349 25.5181 16.2611 25.5553 16.1874 25.5181Z" fill="#FDC638"/>
<path d="M21.8659 22.5751L16.8511 25.5181C16.7774 25.5553 16.7036 25.5181 16.7036 25.4436V19.6322C16.7036 19.5949 16.7036 19.5577 16.7405 19.5577L21.7553 16.6147C21.829 16.5775 21.9028 16.6147 21.9028 16.6892V22.5006C21.9396 22.5379 21.9028 22.5751 21.8659 22.5751Z" fill="#009588"/>
<path d="M16.1874 32L11.1726 29.0571C11.1357 29.0571 11.1357 29.0198 11.1357 28.9826V23.1712C11.1357 23.0966 11.2095 23.0594 11.2832 23.0966L16.298 26.0396C16.3349 26.0396 16.3349 26.0769 16.3349 26.1141V31.9255C16.3349 31.9628 16.2611 32.0373 16.1874 32Z" fill="#009588"/>
<path d="M21.8659 29.0571L16.8511 32C16.7774 32.0373 16.7036 32 16.7036 31.9255V26.1141C16.7036 26.0769 16.7036 26.0396 16.7405 26.0396L21.7921 23.0966C21.8659 23.0594 21.9396 23.0966 21.9396 23.1712V28.9826C21.9396 29.0198 21.9028 29.0571 21.8659 29.0571Z" fill="#F47E20"/>
<path d="M45.5387 11.2502H47.493V17.6204C47.493 18.4027 47.2349 19.036 46.6818 19.5948C46.1287 20.1536 45.5018 20.4144 44.7275 20.4144C44.0269 20.4144 43.4369 20.1909 42.9576 19.7438C42.4413 20.1909 41.8513 20.4144 41.1876 20.4144C40.4133 20.4144 39.7864 20.1536 39.2333 19.5948C38.6802 19.036 38.4221 18.4027 38.4221 17.6204V11.2502H40.3764V17.6204C40.3764 17.844 40.4502 18.0302 40.5977 18.2165C40.7451 18.4027 40.9295 18.44 41.1876 18.44C41.4457 18.44 41.5932 18.3655 41.7776 18.2165C41.962 18.0675 41.9988 17.8812 41.9988 17.6204V11.2502H43.9531V17.6204C43.9531 17.844 44.0269 18.0302 44.1744 18.2165C44.3219 18.4027 44.5062 18.44 44.7643 18.44C45.0225 18.44 45.17 18.3655 45.3543 18.2165C45.5387 18.0675 45.5756 17.8812 45.5756 17.6204V11.2502H45.5387Z" fill="#F47E20"/>
<path d="M55.4208 11.2502C56.1951 11.2502 56.822 11.511 57.3751 12.0698C57.9282 12.6286 58.1863 13.2619 58.1863 14.0442V20.4144H56.232V17.8067H51.0328V20.4144H49.0786V14.0442C49.0786 13.2619 49.3367 12.6286 49.8898 12.0698C50.4429 11.511 51.0697 11.2502 51.8441 11.2502H55.4208ZM56.232 14.0442C56.232 13.8207 56.1582 13.6344 56.0108 13.4481C55.8633 13.2619 55.6789 13.2246 55.4208 13.2246H51.8441C51.6228 13.2246 51.4384 13.2991 51.2541 13.4481C51.0697 13.5972 51.0328 13.7834 51.0328 14.0442V15.8323H56.232V14.0442Z" fill="#F47E20"/>
<path d="M66.1141 11.2502C66.8884 11.2502 67.5153 11.511 68.0684 12.0698C68.6215 12.6286 68.8796 13.2619 68.8796 14.0442C68.8796 14.752 68.6583 15.348 68.2159 15.8323C68.6583 16.3539 68.8796 16.9499 68.8796 17.6204V20.4144H66.9253V17.6204C66.9253 17.3969 66.8515 17.2107 66.704 17.0244C66.5566 16.8381 66.3722 16.8009 66.1141 16.8009H61.7261V20.4144H59.7719V11.2502H66.1141ZM66.9253 14.0442C66.9253 13.8207 66.8515 13.6344 66.704 13.4481C66.5566 13.2619 66.3722 13.2246 66.1141 13.2246H61.7261V14.8637H66.1141C66.3353 14.8637 66.5197 14.7892 66.704 14.6402C66.8884 14.4912 66.9253 14.2677 66.9253 14.0442Z" fill="#F47E20"/>
<path d="M72.4563 14.8637H79.5729V16.8381H72.4563V18.4773H79.5729V20.4516H70.502V11.2502H79.5729V13.2246H72.4563V14.8637Z" fill="#F47E20"/>
<path d="M83.1496 16.8381V20.4516H81.1953V11.2502H83.1496V14.8637H88.3488V11.2502H90.303V20.4144H88.3488V16.8009H83.1496V16.8381Z" fill="#F47E20"/>
<path d="M94.6541 20.4516C93.8798 20.4516 93.2529 20.1909 92.6998 19.6321C92.1467 19.0733 91.8886 18.44 91.8886 17.6577V14.0442C91.8886 13.2619 92.1467 12.6286 92.6998 12.0698C93.2529 11.511 93.8798 11.2502 94.6541 11.2502H98.2308C99.0052 11.2502 99.632 11.511 100.185 12.0698C100.738 12.6286 100.996 13.2619 100.996 14.0442V17.6577C100.996 18.44 100.738 19.0733 100.185 19.6321C99.632 20.1909 99.0052 20.4516 98.2308 20.4516H94.6541ZM93.8429 17.6577C93.8429 17.8812 93.9167 18.0675 94.0641 18.2537C94.2116 18.44 94.396 18.4773 94.6541 18.4773H98.2308C98.4521 18.4773 98.6364 18.4027 98.8208 18.2537C99.0052 18.1047 99.0421 17.9185 99.0421 17.6577V14.0442C99.0421 13.8207 98.9683 13.6344 98.8208 13.4481C98.6733 13.2619 98.4889 13.2246 98.2308 13.2246H94.6541C94.4329 13.2246 94.2485 13.2991 94.0641 13.4481C93.8798 13.5972 93.8429 13.7834 93.8429 14.0442V17.6577Z" fill="#F47E20"/>
<path d="M109.735 11.2502H111.69V17.6204C111.69 18.4027 111.432 19.036 110.878 19.5948C110.325 20.1536 109.698 20.4144 108.924 20.4144H105.347C104.573 20.4144 103.946 20.1536 103.393 19.5948C102.84 19.036 102.582 18.4027 102.582 17.6204V11.2502H104.536V17.6204C104.536 17.844 104.61 18.0302 104.757 18.2165C104.905 18.4027 105.089 18.44 105.347 18.44H108.924C109.145 18.44 109.33 18.3655 109.514 18.2165C109.698 18.0675 109.735 17.8812 109.735 17.6204V11.2502Z" fill="#F47E20"/>
<path d="M122.346 17.6577C122.346 18.44 122.088 19.0733 121.535 19.6321C120.982 20.1909 120.355 20.4516 119.581 20.4516H116.004C115.229 20.4516 114.603 20.1909 114.049 19.6321C113.496 19.0733 113.238 18.44 113.238 17.6577V17.5087H115.193V17.6577C115.193 17.8812 115.266 18.0675 115.414 18.2537C115.561 18.44 115.746 18.4773 116.004 18.4773H119.581C119.802 18.4773 119.986 18.4027 120.17 18.2537C120.355 18.1047 120.392 17.9185 120.392 17.6577C120.392 17.3969 120.318 17.2479 120.17 17.0617C120.023 16.8754 119.839 16.8381 119.581 16.8381H116.004C115.229 16.8381 114.603 16.5774 114.049 16.0186C113.496 15.4598 113.238 14.8265 113.238 14.0442C113.238 13.2619 113.496 12.6286 114.049 12.0698C114.603 11.511 115.229 11.2502 116.004 11.2502H119.581C120.355 11.2502 120.982 11.511 121.535 12.0698C122.088 12.6286 122.346 13.2619 122.346 14.0442V14.1932H120.392V14.0442C120.392 13.8207 120.318 13.6344 120.17 13.4481C120.023 13.2619 119.839 13.2246 119.581 13.2246H116.004C115.783 13.2246 115.598 13.2991 115.414 13.4481C115.229 13.5972 115.193 13.7834 115.193 14.0442C115.193 14.305 115.266 14.454 115.414 14.6402C115.561 14.8265 115.746 14.8637 116.004 14.8637H119.581C120.355 14.8637 120.982 15.1245 121.535 15.6833C122.051 16.2048 122.309 16.8381 122.346 17.6577Z" fill="#F47E20"/>
<path d="M125.923 14.8637H133.039V16.8381H125.923V18.4773H133.039V20.4516H123.968V11.2502H133.039V13.2246H125.923V14.8637Z" fill="#F47E20"/>
<path d="M147.051 20.4516H145.097V14.0442C145.097 13.8207 145.023 13.6344 144.876 13.4481C144.728 13.2619 144.544 13.2246 144.286 13.2246C144.028 13.2246 143.88 13.2991 143.696 13.4481C143.511 13.5972 143.474 13.7834 143.474 14.0442V20.4144H141.52V14.0442C141.52 13.8207 141.446 13.6344 141.299 13.4481C141.151 13.2619 140.967 13.2246 140.709 13.2246C140.451 13.2246 140.303 13.2991 140.119 13.4481C139.935 13.5972 139.898 13.7834 139.898 14.0442V20.4144H137.943V14.0442C137.943 13.2619 138.202 12.6286 138.755 12.0698C139.308 11.511 139.935 11.2502 140.709 11.2502C141.41 11.2502 142 11.4738 142.479 11.9208C142.995 11.4738 143.585 11.2502 144.249 11.2502C145.023 11.2502 145.65 11.511 146.203 12.0698C146.756 12.6286 147.014 13.2619 147.014 14.0442V20.4516H147.051Z" fill="#F47E20"/>
<path d="M154.979 11.2502C155.753 11.2502 156.38 11.511 156.933 12.0698C157.486 12.6286 157.745 13.2619 157.745 14.0442V20.4144H155.79V17.8067H150.591V20.4144H148.637V14.0442C148.637 13.2619 148.895 12.6286 149.448 12.0698C150.001 11.511 150.628 11.2502 151.402 11.2502H154.979ZM155.79 14.0442C155.79 13.8207 155.716 13.6344 155.569 13.4481C155.421 13.2619 155.237 13.2246 154.979 13.2246H151.402C151.181 13.2246 150.997 13.2991 150.812 13.4481C150.628 13.5972 150.591 13.7834 150.591 14.0442V15.8323H155.79V14.0442Z" fill="#F47E20"/>
<path d="M168.438 20.4516H166.484V14.0442C166.484 13.8207 166.41 13.6344 166.262 13.4481C166.115 13.2619 165.93 13.2246 165.672 13.2246H162.096C161.874 13.2246 161.69 13.2991 161.506 13.4481C161.321 13.5972 161.284 13.7834 161.284 14.0442V20.4144H159.33V14.0442C159.33 13.2619 159.588 12.6286 160.141 12.0698C160.694 11.511 161.321 11.2502 162.096 11.2502H165.672C166.447 11.2502 167.074 11.511 167.627 12.0698C168.18 12.6286 168.438 13.2619 168.438 14.0442V20.4516Z" fill="#F47E20"/>
<path d="M176.366 11.2502C177.14 11.2502 177.767 11.511 178.32 12.0698C178.873 12.6286 179.131 13.2619 179.131 14.0442V20.4144H177.177V17.8067H171.978V20.4144H170.023V14.0442C170.023 13.2619 170.281 12.6286 170.835 12.0698C171.388 11.511 172.015 11.2502 172.789 11.2502H176.366ZM177.177 14.0442C177.177 13.8207 177.103 13.6344 176.956 13.4481C176.808 13.2619 176.624 13.2246 176.366 13.2246H172.789C172.568 13.2246 172.383 13.2991 172.199 13.4481C172.015 13.5972 171.978 13.7834 171.978 14.0442V15.8323H177.177V14.0442Z" fill="#F47E20"/>
<path d="M183.519 20.4516C182.745 20.4516 182.118 20.1909 181.565 19.6321C181.012 19.0733 180.754 18.44 180.754 17.6577V14.0442C180.754 13.2619 181.012 12.6286 181.565 12.0698C182.118 11.511 182.745 11.2502 183.519 11.2502H187.096C187.87 11.2502 188.497 11.511 189.05 12.0698C189.603 12.6286 189.861 13.2619 189.861 14.0442V14.1932H187.907V14.0442C187.907 13.8207 187.833 13.6344 187.686 13.4481C187.538 13.2619 187.354 13.2246 187.096 13.2246H183.519C183.298 13.2246 183.113 13.2991 182.929 13.4481C182.745 13.5972 182.708 13.7834 182.708 14.0442V17.6577C182.708 17.8812 182.782 18.0675 182.929 18.2537C183.077 18.44 183.261 18.4773 183.519 18.4773H187.096C187.317 18.4773 187.501 18.4027 187.686 18.2537C187.87 18.1047 187.907 17.9185 187.907 17.6577V16.8381H184.33V14.8637H189.824V17.6577C189.824 18.44 189.566 19.0733 189.013 19.6321C188.46 20.1909 187.833 20.4516 187.059 20.4516H183.519Z" fill="#F47E20"/>
<path d="M193.401 14.8637H200.518V16.8381H193.401V18.4773H200.518V20.4516H191.447V11.2502H200.518V13.2246H193.401V14.8637Z" fill="#F47E20"/>
<path d="M211.211 20.4516H209.257V14.0442C209.257 13.8207 209.183 13.6344 209.035 13.4481C208.888 13.2619 208.704 13.2246 208.445 13.2246C208.187 13.2246 208.04 13.2991 207.856 13.4481C207.671 13.5972 207.634 13.7834 207.634 14.0442V20.4144H205.68V14.0442C205.68 13.8207 205.606 13.6344 205.459 13.4481C205.311 13.2619 205.127 13.2246 204.869 13.2246C204.611 13.2246 204.463 13.2991 204.279 13.4481C204.094 13.5972 204.058 13.7834 204.058 14.0442V20.4144H202.103V14.0442C202.103 13.2619 202.361 12.6286 202.914 12.0698C203.468 11.511 204.094 11.2502 204.869 11.2502C205.569 11.2502 206.159 11.4738 206.639 11.9208C207.155 11.4738 207.745 11.2502 208.409 11.2502C209.183 11.2502 209.81 11.511 210.363 12.0698C210.916 12.6286 211.174 13.2619 211.174 14.0442V20.4516H211.211Z" fill="#F47E20"/>
<path d="M214.788 14.8637H221.904V16.8381H214.788V18.4773H221.904V20.4516H212.833V11.2502H221.904V13.2246H214.788V14.8637Z" fill="#F47E20"/>
<path d="M232.598 20.4516H230.643V14.0442C230.643 13.8207 230.57 13.6344 230.422 13.4481C230.275 13.2619 230.09 13.2246 229.832 13.2246H226.255C226.034 13.2246 225.85 13.2991 225.665 13.4481C225.481 13.5972 225.444 13.7834 225.444 14.0442V20.4144H223.49V14.0442C223.49 13.2619 223.748 12.6286 224.301 12.0698C224.854 11.511 225.481 11.2502 226.255 11.2502H229.832C230.606 11.2502 231.233 11.511 231.786 12.0698C232.339 12.6286 232.598 13.2619 232.598 14.0442V20.4516Z" fill="#F47E20"/>
<path d="M239.714 13.2246V20.4144H237.76V13.2246H234.183V11.2502H243.254V13.2246H239.714Z" fill="#F47E20"/>
<path d="M257.266 17.6577C257.266 18.44 257.008 19.0733 256.455 19.6321C255.902 20.1909 255.275 20.4516 254.5 20.4516H250.924C250.149 20.4516 249.523 20.1909 248.969 19.6321C248.416 19.0733 248.158 18.44 248.158 17.6577V17.5087H250.112V17.6577C250.112 17.8812 250.186 18.0675 250.334 18.2537C250.481 18.44 250.666 18.4773 250.924 18.4773H254.5C254.722 18.4773 254.906 18.4027 255.09 18.2537C255.275 18.1047 255.312 17.9185 255.312 17.6577C255.312 17.3969 255.238 17.2479 255.09 17.0617C254.943 16.8754 254.759 16.8381 254.5 16.8381H250.924C250.149 16.8381 249.523 16.5774 248.969 16.0186C248.416 15.4598 248.158 14.8265 248.158 14.0442C248.158 13.2619 248.416 12.6286 248.969 12.0698C249.523 11.511 250.149 11.2502 250.924 11.2502H254.5C255.275 11.2502 255.902 11.511 256.455 12.0698C257.008 12.6286 257.266 13.2619 257.266 14.0442V14.1932H255.312V14.0442C255.312 13.8207 255.238 13.6344 255.09 13.4481C254.943 13.2619 254.759 13.2246 254.5 13.2246H250.924C250.702 13.2246 250.518 13.2991 250.334 13.4481C250.149 13.5972 250.112 13.7834 250.112 14.0442C250.112 14.305 250.186 14.454 250.334 14.6402C250.481 14.8265 250.666 14.8637 250.924 14.8637H254.5C255.275 14.8637 255.902 15.1245 256.455 15.6833C256.971 16.2048 257.229 16.8381 257.266 17.6577Z" fill="#F47E20"/>
<path d="M258.888 11.2502H260.843V14.0442C260.843 14.2677 260.916 14.454 261.064 14.6402C261.211 14.8265 261.396 14.8637 261.654 14.8637H265.231C265.452 14.8637 265.636 14.7892 265.821 14.603C265.968 14.454 266.042 14.2677 266.042 14.0442V11.2502H267.996V17.6204C267.996 18.4027 267.738 19.036 267.185 19.5948C266.632 20.1536 266.005 20.4144 265.231 20.4144H261.654C260.879 20.4144 260.253 20.1536 259.7 19.5948C259.146 19.036 258.888 18.4027 258.888 17.6204V17.4714H260.843V17.6577C260.843 17.8812 260.916 18.0675 261.064 18.2537C261.211 18.44 261.396 18.4773 261.654 18.4773H265.231C265.452 18.4773 265.636 18.4027 265.821 18.2537C266.005 18.1047 266.042 17.9185 266.042 17.6577V16.7264C265.784 16.8009 265.526 16.8381 265.231 16.8381H261.654C260.879 16.8381 260.253 16.5774 259.7 16.0186C259.146 15.4598 258.888 14.8265 258.888 14.0442V11.2502Z" fill="#F47E20"/>
<path d="M278.689 17.6577C278.689 18.44 278.431 19.0733 277.878 19.6321C277.325 20.1909 276.698 20.4516 275.924 20.4516H272.347C271.573 20.4516 270.946 20.1909 270.393 19.6321C269.84 19.0733 269.582 18.44 269.582 17.6577V17.5087H271.536V17.6577C271.536 17.8812 271.61 18.0675 271.757 18.2537C271.905 18.44 272.089 18.4773 272.347 18.4773H275.924C276.145 18.4773 276.329 18.4027 276.514 18.2537C276.698 18.1047 276.735 17.9185 276.735 17.6577C276.735 17.3969 276.661 17.2479 276.514 17.0617C276.366 16.8754 276.182 16.8381 275.924 16.8381H272.347C271.573 16.8381 270.946 16.5774 270.393 16.0186C269.84 15.4598 269.582 14.8265 269.582 14.0442C269.582 13.2619 269.84 12.6286 270.393 12.0698C270.946 11.511 271.573 11.2502 272.347 11.2502H275.924C276.698 11.2502 277.325 11.511 277.878 12.0698C278.431 12.6286 278.689 13.2619 278.689 14.0442V14.1932H276.735V14.0442C276.735 13.8207 276.661 13.6344 276.514 13.4481C276.366 13.2619 276.182 13.2246 275.924 13.2246H272.347C272.126 13.2246 271.942 13.2991 271.757 13.4481C271.573 13.5972 271.536 13.7834 271.536 14.0442C271.536 14.305 271.61 14.454 271.757 14.6402C271.905 14.8265 272.089 14.8637 272.347 14.8637H275.924C276.698 14.8637 277.325 15.1245 277.878 15.6833C278.357 16.2048 278.616 16.8381 278.689 17.6577Z" fill="#F47E20"/>
<path d="M285.806 13.2246V20.4144H283.852V13.2246H280.275V11.2502H289.346V13.2246H285.806Z" fill="#F47E20"/>
<path d="M292.923 14.8637H300.039V16.8381H292.923V18.4773H300.039V20.4516H290.968V11.2502H300.039V13.2246H292.923V14.8637Z" fill="#F47E20"/>
<path d="M310.769 20.4516H308.815V14.0442C308.815 13.8207 308.741 13.6344 308.594 13.4481C308.446 13.2619 308.262 13.2246 308.004 13.2246C307.746 13.2246 307.598 13.2991 307.414 13.4481C307.229 13.5972 307.192 13.7834 307.192 14.0442V20.4144H305.238V14.0442C305.238 13.8207 305.164 13.6344 305.017 13.4481C304.869 13.2619 304.685 13.2246 304.427 13.2246C304.169 13.2246 304.021 13.2991 303.837 13.4481C303.653 13.5972 303.616 13.7834 303.616 14.0442V20.4144H301.661V14.0442C301.661 13.2619 301.92 12.6286 302.473 12.0698C303.026 11.511 303.653 11.2502 304.427 11.2502C305.128 11.2502 305.718 11.4738 306.197 11.9208C306.713 11.4738 307.303 11.2502 307.967 11.2502C308.741 11.2502 309.368 11.511 309.921 12.0698C310.474 12.6286 310.732 13.2619 310.732 14.0442V20.4516H310.769Z" fill="#F47E20"/>
</svg>
