<svg width="32" height="37" viewBox="0 0 32 37" fill="none" xmlns="http://www.w3.org/2000/svg">
<g clip-path="url(#clip0)">
<path fill-rule="evenodd" clip-rule="evenodd" d="M6.57844 0C5.46144 0 4.55524 0.906208 4.55524 2.02371V34.4022C4.55524 35.5197 5.46144 36.4254 6.57844 36.4254H29.8508C30.9683 36.4254 31.874 35.5197 31.874 34.4022V9.37136L22.1198 0H6.57844Z" fill="#E9EAEE"/>
<path fill-rule="evenodd" clip-rule="evenodd" d="M31.8745 9.37136H24.1435C23.026 9.37136 22.1203 8.46516 22.1203 7.34765V0L31.8745 9.37136Z" fill="#A7ADBB"/>
<path fill-rule="evenodd" clip-rule="evenodd" d="M21.7162 22.5326C21.7162 23.8225 20.6707 24.868 19.3813 24.868H2.3349C1.04496 24.868 0 23.8225 0 22.5326V15.3985C0 14.1086 1.04496 13.0636 2.3349 13.0636H19.3813C20.6707 13.0636 21.7162 14.1086 21.7162 15.3985V22.5326Z" fill="#BF2026"/>
<path fill-rule="evenodd" clip-rule="evenodd" d="M5.54993 19.7337H6.43054C7.0199 19.7337 7.46362 19.6096 7.76147 19.36C8.05939 19.1103 8.20813 18.7441 8.20813 18.2605C8.20813 18.0336 8.17206 17.8299 8.09827 17.6485C8.02447 17.467 7.91736 17.3136 7.77618 17.1885C7.63501 17.0634 7.46692 16.9739 7.27271 16.9199C7.07611 16.8636 6.7962 16.8356 6.43091 16.8356H5.19733C4.98566 16.8356 4.83118 16.881 4.73413 16.9715C4.63702 17.0621 4.58826 17.2131 4.58826 17.4249V21.0838C4.58826 21.2737 4.63281 21.4182 4.72095 21.5163C4.80902 21.6144 4.92554 21.6636 5.0705 21.6636C5.20886 21.6636 5.32343 21.6144 5.41394 21.5149C5.50446 21.4153 5.54993 21.2699 5.54993 21.0776V19.7337ZM5.54993 17.5576H6.19751C6.6272 17.5576 6.91089 17.6276 7.04877 17.7684C7.17194 17.9001 7.23346 18.0706 7.23346 18.28C7.23346 18.4553 7.1936 18.5965 7.11359 18.7045C7.03357 18.8124 6.91748 18.8902 6.76593 18.9375C6.61334 18.9849 6.42438 19.0085 6.19751 19.0085H5.54993V17.5576Z" fill="white"/>
<path fill-rule="evenodd" clip-rule="evenodd" d="M10.8607 16.8356H9.60718C9.40021 16.8356 9.25031 16.882 9.15753 16.9749C9.0647 17.0679 9.01825 17.2175 9.01825 17.425V20.9058C9.01825 21.0592 9.03156 21.1838 9.05902 21.28C9.08557 21.3761 9.14331 21.451 9.23193 21.5036C9.32056 21.5561 9.45221 21.5827 9.62708 21.5827H10.8806C11.0986 21.5827 11.2947 21.5685 11.4685 21.5406C11.6419 21.5127 11.8043 21.4638 11.9555 21.3947C12.1066 21.3256 12.2458 21.2341 12.3733 21.1195C12.5353 20.9702 12.6684 20.8016 12.7717 20.6126C12.875 20.4236 12.9522 20.2114 13.0015 19.9764C13.0507 19.7414 13.0758 19.4814 13.0758 19.1962C13.0758 18.3326 12.8289 17.6892 12.3344 17.2663C12.144 17.0999 11.9332 16.9862 11.6996 16.9261C11.4661 16.8658 11.1865 16.8356 10.8607 16.8356V16.8356ZM9.97955 20.8184V17.5963L10.6147 17.5958C10.9083 17.5958 11.159 17.6281 11.366 17.6915C11.5729 17.7549 11.7473 17.9037 11.889 18.1367C12.0301 18.3703 12.1008 18.7208 12.1008 19.1893C12.1008 19.8545 11.9397 20.3229 11.618 20.5948C11.547 20.6577 11.4627 20.7061 11.3656 20.7407C11.2685 20.7754 11.1743 20.7971 11.0837 20.8056C10.9933 20.8141 10.8678 20.8184 10.7081 20.8184H9.97955V20.8184Z" fill="white"/>
<path fill-rule="evenodd" clip-rule="evenodd" d="M16.7574 17.5769H14.863V18.791H16.4467C16.5935 18.791 16.7029 18.8237 16.7749 18.8895C16.8474 18.9554 16.8834 19.0435 16.8834 19.1534C16.8834 19.2633 16.847 19.3509 16.7736 19.4158C16.7001 19.4808 16.5911 19.5129 16.4467 19.5129H14.863V21.0771C14.863 21.2756 14.8181 21.4228 14.7284 21.519C14.6394 21.6152 14.5239 21.663 14.3836 21.663C14.241 21.663 14.1249 21.6142 14.0354 21.5171C13.9464 21.42 13.9014 21.2732 13.9014 21.0766V17.4248C13.9014 17.2864 13.9217 17.1737 13.9629 17.0865C14.0042 16.9994 14.0681 16.9353 14.1557 16.8956C14.2428 16.8558 14.3547 16.8359 14.4906 16.8359H16.7572C16.9103 16.8359 17.0244 16.87 17.0988 16.9377C17.1736 17.006 17.2106 17.095 17.2106 17.2049C17.2106 17.3171 17.1736 17.4072 17.0988 17.4754C17.0246 17.5429 16.9104 17.5769 16.7574 17.5769V17.5769Z" fill="white"/>
</g>
<defs>
<clipPath id="clip0">
<rect width="31.875" height="36.425" fill="white"/>
</clipPath>
</defs>
</svg>
