<svg width="214" height="106" viewBox="0 0 214 106" fill="none" xmlns="http://www.w3.org/2000/svg">
<g clip-path="url(#clip0)">
<path d="M163.124 0H49.0583V102.137H163.124V0Z" fill="#FF7E00"/>
<path d="M164.815 0H47.6082V17.1435H164.815V0Z" fill="#FF7E00"/>
<path fill-rule="evenodd" clip-rule="evenodd" d="M153.457 0H140.891V23.4214L143.549 22.2141L146.207 23.4214L149.591 21.4897L153.457 23.4214V0Z" fill="#F2994A"/>
<path fill-rule="evenodd" clip-rule="evenodd" d="M71.5328 0H58.9663V23.4214L61.6246 22.2141L64.0412 23.4214L67.4245 21.4897L71.5328 23.4214V0Z" fill="#F2994A"/>
<path d="M99.8075 46.6014H54.1331V67.6083H99.8075V46.6014Z" fill="#E1EEF6"/>
<path d="M57.9995 48.0502H56.5496V63.262H57.9995V48.0502Z" fill="#4F4F4F"/>
<path d="M60.8994 48.0502H59.4495V63.262H60.8994V48.0502Z" fill="#4F4F4F"/>
<path d="M69.3577 48.0502H67.9077V63.262H69.3577V48.0502Z" fill="#4F4F4F"/>
<path d="M78.0579 48.0502H76.6079V63.262H78.0579V48.0502Z" fill="#4F4F4F"/>
<path d="M85.3076 48.0502H83.8577V63.262H85.3076V48.0502Z" fill="#4F4F4F"/>
<path d="M62.3493 48.0502H61.6243V63.262H62.3493V48.0502Z" fill="#4F4F4F"/>
<path d="M70.8075 48.0502H70.0825V63.262H70.8075V48.0502Z" fill="#4F4F4F"/>
<path d="M79.2658 48.0502H78.5408V63.262H79.2658V48.0502Z" fill="#4F4F4F"/>
<path d="M86.7575 48.0502H86.0325V63.262H86.7575V48.0502Z" fill="#4F4F4F"/>
<path d="M65.491 48.0502H64.041V63.262H65.491V48.0502Z" fill="#4F4F4F"/>
<path d="M73.9493 48.0502H72.4993V63.262H73.9493V48.0502Z" fill="#4F4F4F"/>
<path d="M82.4075 48.0502H80.9575V63.262H82.4075V48.0502Z" fill="#4F4F4F"/>
<path d="M89.8992 48.0502H88.4492V63.262H89.8992V48.0502Z" fill="#4F4F4F"/>
<path d="M63.5578 48.0502H62.8328V66.1595H63.5578V48.0502Z" fill="#4F4F4F"/>
<path d="M72.016 48.0502H71.291V63.262H72.016V48.0502Z" fill="#4F4F4F"/>
<path d="M80.4743 48.0502H79.7493V63.262H80.4743V48.0502Z" fill="#4F4F4F"/>
<path d="M87.966 48.0502H87.241V63.262H87.966V48.0502Z" fill="#4F4F4F"/>
<path d="M59.2081 48.0502H58.4832V63.262H59.2081V48.0502Z" fill="#4F4F4F"/>
<path d="M67.6664 48.0502H66.9414V63.262H67.6664V48.0502Z" fill="#4F4F4F"/>
<path d="M76.1244 48.0502H75.3994V63.262H76.1244V48.0502Z" fill="#4F4F4F"/>
<path d="M83.6159 48.0502H82.8909V63.262H83.6159V48.0502Z" fill="#4F4F4F"/>
<path d="M92.5576 48.0502H91.1077V63.262H92.5576V48.0502Z" fill="#4F4F4F"/>
<path d="M94.0075 48.0502H93.2825V63.262H94.0075V48.0502Z" fill="#4F4F4F"/>
<path d="M97.1492 48.0502H95.6992V63.262H97.1492V48.0502Z" fill="#4F4F4F"/>
<path d="M95.2157 48.0502H94.4907V63.262H95.2157V48.0502Z" fill="#4F4F4F"/>
<path d="M90.8659 48.0502H90.1409V63.262H90.8659V48.0502Z" fill="#4F4F4F"/>
<path fill-rule="evenodd" clip-rule="evenodd" d="M97.8743 31.3895C97.1493 28.7334 94.9743 26.8018 92.0743 26.8018C89.416 27.0432 86.9994 28.9749 86.2744 31.3895H97.8743Z" fill="#4F4F4F"/>
<path fill-rule="evenodd" clip-rule="evenodd" d="M92.5572 38.8748C92.5572 40.0821 91.5906 41.048 90.3822 41.048C89.1739 41.048 88.2073 40.0821 88.2073 38.8748H89.4156C89.4156 39.3578 89.8989 39.8407 90.6239 39.8407C91.1072 39.8407 91.8322 39.3578 91.8322 38.8748V30.9067H93.0405V38.8748H92.5572Z" fill="#4F4F4F"/>
<path d="M79.266 32.5968H78.2993V40.082H79.266V32.5968Z" fill="#4F4F4F"/>
<path fill-rule="evenodd" clip-rule="evenodd" d="M83.1326 27.0432V31.8724C83.1326 34.0455 81.1993 35.9772 79.0243 35.9772C76.8493 35.9772 74.916 34.0455 74.916 31.8724V27.0432H83.1326Z" fill="#4F4F4F"/>
<path fill-rule="evenodd" clip-rule="evenodd" d="M76.6079 40.3234H81.4412C82.1662 40.3234 82.6495 40.8063 82.6495 41.0477H75.6412C75.3996 40.5648 75.8829 40.3234 76.6079 40.3234Z" fill="#4F4F4F"/>
<path fill-rule="evenodd" clip-rule="evenodd" d="M63.0748 32.8382V40.0819H60.4165V32.8382H58.4832L60.1748 29.9407L61.8664 27.0432L63.3164 29.9407L65.0081 32.8382H63.0748Z" fill="#4F4F4F"/>
<path fill-rule="evenodd" clip-rule="evenodd" d="M70.3245 32.8382V40.0819H67.6662V32.8382H65.7329L67.4246 29.9407L68.8745 27.0432L70.5662 29.9407L72.0162 32.8382H70.3245Z" fill="#4F4F4F"/>
<path d="M71.5326 40.082H59.4495V41.0479H71.5326V40.082Z" fill="#4F4F4F"/>
<path fill-rule="evenodd" clip-rule="evenodd" d="M185.598 76.0592L183.906 77.7494C176.415 85.2346 179.798 96.1002 160.223 104.31C151.282 106.724 141.132 106 135.815 104.793C134.607 102.861 136.54 100.205 139.199 99.9635C144.757 100.929 150.557 100.929 156.357 99.9635C156.84 99.9635 156.84 99.2391 156.357 99.2391C150.315 100.446 144.515 100.446 139.44 99.4806C138.715 97.066 140.165 94.6514 143.79 94.41C150.073 94.1685 155.873 94.6514 159.74 91.9954C164.815 87.4077 159.498 83.5444 156.115 86.9248L153.215 89.3394C149.832 92.7198 146.69 91.7539 144.757 88.8565C147.415 87.6492 151.523 84.0273 153.698 81.1298C156.598 77.2665 159.982 73.6446 163.848 70.5057C166.507 68.0911 169.165 67.8496 171.823 68.0911C173.273 68.574 174.965 67.3667 175.448 66.4009L185.598 76.0592Z" fill="#FECA5C"/>
<path d="M195.81 39.215L175.475 59.5325L193.246 77.2889L213.581 56.9714L195.81 39.215Z" fill="#009688"/>
<path d="M209.654 53.0222L189.319 73.3396L193.078 77.0958L213.413 56.7783L209.654 53.0222Z" fill="#009688"/>
<path d="M176.116 60.1998L172.871 63.4452L188.941 79.4875L192.186 76.2421L176.116 60.1998Z" fill="#E0E0E0"/>
<path d="M189.28 73.4441L186.034 76.6895L188.941 79.5907L192.186 76.3454L189.28 73.4441Z" fill="#E0E0E0"/>
<path fill-rule="evenodd" clip-rule="evenodd" d="M28.0332 76.0592L29.7248 77.7494C37.2164 85.2346 33.8331 96.1002 53.4079 104.31C62.3495 106.724 72.4993 106 77.8159 104.793C79.0243 102.861 77.0909 100.205 74.4326 99.9635C68.8744 100.929 63.0745 100.929 57.2745 99.9635C56.7912 99.9635 56.7912 99.2391 57.2745 99.2391C63.3161 100.446 69.116 100.446 74.191 99.4806C74.916 97.066 73.466 94.6514 69.841 94.41C63.5578 94.1685 57.7578 94.6514 53.8912 91.9954C48.8163 87.4077 54.1329 83.5444 57.5162 86.9248L60.4161 89.3394C63.7994 92.7198 66.9411 91.7539 68.8744 88.8565C66.2161 87.6492 62.1078 84.0273 59.9328 81.1298C57.0329 77.2665 53.6496 73.6446 49.7829 70.5057C47.1246 68.0911 44.4663 67.8496 41.808 68.0911C40.3581 68.574 38.6664 67.3667 38.1831 66.4009L28.0332 76.0592Z" fill="#FECA5C"/>
<path d="M17.794 39.0328L0.0224609 56.7892L20.3572 77.1066L38.1288 59.3502L17.794 39.0328Z" fill="#009688"/>
<path d="M37.376 60.2731L21.3132 76.3221L24.56 79.5661L40.6227 63.517L37.376 60.2731Z" fill="#E0E0E0"/>
<path d="M3.79428 53.041L0.0349121 56.7971L20.3697 77.1146L24.1291 73.3584L3.79428 53.041Z" fill="#009688"/>
<path d="M24.1179 73.4238L21.2117 76.3251L24.457 79.5704L27.3632 76.6691L24.1179 73.4238Z" fill="#E0E0E0"/>
</g>
<defs>
<clipPath id="clip0">
<rect width="213.631" height="106" fill="white"/>
</clipPath>
</defs>
</svg>